<svg xmlns="http://www.w3.org/2000/svg" width="2048" height="2048" viewBox="0 0 2048 2048">
  <rect width="2048" height="2048" fill="#ccff00"/>

  <g transform="translate(1024, 960) scale(4.2)">
    <g transform="translate(-90, -160)">
      <path fill="#383838" d="M0 0 C1.31484375 0.95712891 1.31484375 0.95712891 2.65625 1.93359375 C7.85615932 5.93146924 7.85615932 5.93146924 8.4375 10.25 C7.20893304 14.653184 4.33955809 18.35962232 1.84375 22.12890625 C-3.52232301 30.48497334 -5.78559837 38.6289364 -7.32421875 48.30078125 C-8.89405685 56.89405685 -8.89405685 56.89405685 -11 59 C-12.64644288 59.10389938 -14.29731732 59.13852583 -15.94702148 59.14526367 C-17.00159042 59.15164352 -18.05615936 59.15802338 -19.14268494 59.16459656 C-20.29055984 59.16570938 -21.43843475 59.1668222 -22.62109375 59.16796875 C-23.79132584 59.17129715 -24.96155792 59.17462555 -26.16725159 59.17805481 C-28.64803676 59.18312909 -31.12882878 59.18546298 -33.60961914 59.18530273 C-37.41759419 59.18748857 -41.22527943 59.20563751 -45.03320312 59.22460938 C-47.437499 59.22754324 -49.84179627 59.22952808 -52.24609375 59.23046875 C-53.96486977 59.24124702 -53.96486977 59.24124702 -55.71836853 59.25224304 C-56.77608963 59.24916641 -57.83381073 59.24608978 -58.92358398 59.24291992 C-60.3247068 59.24505745 -60.3247068 59.24505745 -61.75413513 59.24723816 C-64 59 -64 59 -66 57 C-66.27124023 54.0065918 -66.27124023 54.0065918 -66.30859375 50.19921875 C-66.33376351 48.81575117 -66.35916138 47.43228773 -66.38476562 46.04882812 C-66.41345206 43.86988487 -66.43746964 41.6910138 -66.45629883 39.51196289 C-66.47804045 37.40732618 -66.5174945 35.30355372 -66.55859375 33.19921875 C-66.57877563 31.30949341 -66.57877563 31.30949341 -66.59936523 29.3815918 C-67.02639057 25.77724813 -67.84842216 23.88685186 -70 21 C-74.44381776 17.89682768 -79.81707899 18.52540113 -85 19 C-90.20560436 20.73520145 -92.82045575 23.58396632 -96 28 C-97.8740107 31.84733889 -98.2526087 34.93182357 -98.26069641 39.19300842 C-98.26778122 40.4393959 -98.27486603 41.68578339 -98.28216553 42.96994019 C-98.27987194 44.34332312 -98.27736228 45.7167057 -98.2746582 47.09008789 C-98.27900733 48.54244753 -98.28419115 49.99480487 -98.29014587 51.44715881 C-98.30352291 55.38504816 -98.30411619 59.32284146 -98.30158257 63.2607491 C-98.30051237 66.54872008 -98.30539728 69.83667167 -98.310188 73.1246385 C-98.32127785 80.87973798 -98.32172297 88.63478901 -98.31567383 96.38989258 C-98.30962818 104.39192631 -98.32196118 112.39378447 -98.3432439 120.39578825 C-98.36084809 127.26724369 -98.36686329 134.13864317 -98.36360615 141.01012033 C-98.36179188 145.11376531 -98.36444414 149.21728493 -98.37832069 153.3209095 C-98.39087591 157.17790677 -98.38897705 161.0346296 -98.37590981 164.89162254 C-98.37353973 166.30738543 -98.37629413 167.72316749 -98.38453293 169.13890839 C-98.39496419 171.07057222 -98.38511729 173.00231395 -98.3742218 174.93397522 C-98.37447341 176.55580766 -98.37447341 176.55580766 -98.37473011 178.2104044 C-97.95103631 181.36449936 -97.18315656 182.72224891 -95 185 C-86.10602969 188.72972949 -75.78913717 186.92971239 -67 184 C-67 170.14 -67 156.28 -67 142 C-71.62 141.67 -76.24 141.34 -81 141 C-81.66 140.67 -82.32 140.34 -83 140 C-83.63106781 128.97885146 -84.10278839 117.97852036 -84.125 106.9375 C-84.12951172 106.00470215 -84.13402344 105.0719043 -84.13867188 104.11083984 C-84.13673828 103.23766113 -84.13480469 102.36448242 -84.1328125 101.46484375 C-84.13168457 100.697771 -84.13055664 99.93069824 -84.12939453 99.14038086 C-83.99878336 96.97987492 -83.59345786 95.07710252 -83 93 C-78.37900341 92.26182573 -73.94807999 91.87388982 -69.27026367 91.87060547 C-67.9758989 91.86745331 -66.68153412 91.86430115 -65.34794617 91.86105347 C-63.95462001 91.86284263 -62.56129417 91.86489342 -61.16796875 91.8671875 C-59.72544844 91.86651313 -58.28292825 91.865542 -56.84040833 91.86428833 C-53.83052478 91.86281997 -50.82067107 91.8649397 -47.81079102 91.86962891 C-43.94931028 91.87535144 -40.08789866 91.87202589 -36.2264204 91.86605644 C-33.25394669 91.8624494 -30.28148948 91.86358963 -27.30901527 91.86618423 C-25.88442285 91.86685178 -24.45982894 91.86603108 -23.03523827 91.86370468 C-21.05108035 91.86117309 -19.06691717 91.86571391 -17.08276367 91.87060547 C-15.38901863 91.87179886 -15.38901863 91.87179886 -13.66105652 91.87301636 C-11 92 -11 92 -9 93 C-8.86700125 104.58249126 -8.73649612 116.16500801 -8.60884857 127.74755955 C-8.54945209 133.1306295 -8.48931676 138.51368868 -8.42724609 143.89672852 C-8.29649774 155.27330869 -8.17591566 166.64987284 -8.07980347 178.02680397 C-8.03770687 182.98224503 -7.99052694 187.93750595 -7.93017578 192.89276123 C-7.87424104 197.49965209 -7.83256252 202.10644827 -7.80201721 206.71357536 C-7.78832068 208.40444938 -7.76942433 210.09529037 -7.74497986 211.78604317 C-7.71239623 214.09700502 -7.69857787 216.40734947 -7.68945312 218.71850586 C-7.67692505 220.01155136 -7.66439697 221.30459686 -7.65148926 222.63682556 C-8.02657346 226.25643738 -8.81043696 228.12610487 -11 231 C-14.03824165 232.51912082 -17.19569355 232.14731184 -20.52880859 232.14526367 C-21.30652115 232.14862228 -22.0842337 232.1519809 -22.88551331 232.15544128 C-25.47317078 232.16498344 -28.06076349 232.16689757 -30.6484375 232.16796875 C-32.45854722 232.17118459 -34.26865669 232.1745489 -36.07876587 232.17805481 C-39.8904073 232.18405803 -43.70202605 232.18589404 -47.51367188 232.18530273 C-52.34098611 232.1852023 -57.16814928 232.19872448 -61.99542809 232.21607494 C-65.74670034 232.2273458 -69.49793818 232.22921721 -73.24922562 232.22869301 C-75.02457819 232.22985558 -76.79993218 232.23417752 -78.57526779 232.24202538 C-131.02803699 232.45175251 -131.02803699 232.45175251 -148.9375 215.75 C-158.75524996 205.18524733 -160.29805815 193.87144126 -160.27124023 180.00927734 C-160.27563249 178.59092919 -160.28093646 177.1725836 -160.28707886 175.75424194 C-160.29854449 172.70902304 -160.30403577 169.6638734 -160.30496025 166.61863327 C-160.30690959 161.79212949 -160.32501193 156.96576762 -160.34571838 152.13931274 C-160.39479661 140.14780583 -160.42572379 128.15626039 -160.44702148 116.16467285 C-160.46359455 106.84880388 -160.4865569 97.53305701 -160.53004223 88.21726954 C-160.55167821 83.43139127 -160.55988959 78.64574577 -160.55764949 73.85982203 C-160.55933096 70.86546617 -160.57346925 67.87125882 -160.59086227 64.87695694 C-160.59901899 62.85300484 -160.59258043 60.82900984 -160.585495 58.80505371 C-160.6745547 47.39341938 -162.41388008 36.79462779 -167.875 26.6875 C-168.22288574 26.01162842 -168.57077148 25.33575684 -168.92919922 24.6394043 C-170.80424516 21.04592777 -172.8280921 17.65689887 -175.125 14.3125 C-177 11 -177 11 -176.3671875 8.55078125 C-167.31145553 -8.34462726 -140.1938952 -18.38296332 -122.8125 -23.75 C-80.80921525 -35.87129574 -34.24042772 -27.42056231 0 0 Z" transform="translate(177,90)"/>
      <path fill="#383838" d="M0 0 C0.515625 0.4434375 1.03125 0.886875 1.5625 1.34375 C1.09901184 6.14798299 -1.21181202 9.05534825 -4.1875 12.65625 C-4.91090576 13.5534375 -4.91090576 13.5534375 -5.64892578 14.46875 C-6.68857772 15.75546436 -7.73251989 17.03872168 -8.78027344 18.31884766 C-10.4897151 20.40754965 -12.18731324 22.50543769 -13.8828125 24.60546875 C-17.05497572 28.52862775 -20.23158055 32.44809903 -23.4375 36.34375 C-24.13166016 37.38635986 -24.82582031 38.42896973 -25.54101562 39.50317383 C-27.73887272 42.11597131 -29.30730161 42.81839654 -32.68603516 43.23120117 C-34.36478035 43.31776052 -36.04569705 43.36750125 -37.7265625 43.38671875 C-38.62563324 43.40906082 -39.52470398 43.43140289 -40.45101929 43.454422 C-42.35204991 43.48911549 -44.25344044 43.50744122 -46.15478516 43.51049805 C-49.03782711 43.53107391 -51.90508615 43.6526054 -54.78515625 43.77929688 C-69.04635912 44.07978734 -69.04635912 44.07978734 -74.02783203 39.61621094 C-76.93622833 36.45754164 -79.17514061 32.98405274 -81.4375 29.34375 C-82.47123426 28.01211259 -83.52147638 26.69276307 -84.6015625 25.3984375 C-85.42423564 24.34037291 -86.24464823 23.28054577 -87.0625 22.21875 C-91.75975996 16.18026842 -96.56330534 10.24092379 -101.4375 4.34375 C-100.859375 2.0078125 -100.859375 2.0078125 -99.4375 -0.65625 C-96.453125 -2.1328125 -96.453125 -2.1328125 -92.6875 -3.28125 C-92.02226318 -3.4865332 -91.35702637 -3.69181641 -90.67163086 -3.90332031 C-65.05936462 -11.5903292 -23.765981 -16.1486794 0 0 Z" transform="translate(142.4375,9.65625)"/>
    </g>
  </g>
</svg>
